<svg width="308" height="219" viewBox="0 0 308 219" fill="none" xmlns="http://www.w3.org/2000/svg">
<path d="M11.953 54.024C11.953 42.248 11.825 30.344 11.825 18.568C11.825 17.16 11.825 15.88 11.953 14.6C11.953 13.704 12.337 13.576 13.105 13.448C15.921 12.936 18.737 12.68 21.553 12.552C24.113 12.424 26.545 12.04 28.977 11.784C29.233 11.784 29.361 11.784 29.489 11.784C32.305 11.528 35.121 11.4 38.065 11.144C40.497 11.016 43.057 10.76 45.489 10.504C46.257 10.504 46.897 10.504 47.281 11.016C49.073 12.808 51.377 13.96 53.297 15.496C55.345 17.032 55.345 17.032 55.857 19.336C57.521 27.528 58.545 35.72 58.545 44.04C58.545 59.4 55.985 75.4 45.873 87.688C39.985 94.856 30.001 101 20.529 101C20.145 101 19.633 101 19.377 100.616C17.457 98.568 15.025 97.032 13.361 94.856C12.721 94.088 12.337 93.448 12.337 92.424C12.465 91.016 12.337 89.736 12.337 88.328C12.209 76.936 12.081 65.416 11.953 54.024ZM25.137 28.168C25.393 46.728 25.649 65.416 25.649 83.976C25.649 84.616 25.649 85.128 25.649 85.768C25.649 86.024 26.033 86.28 26.289 86.152C27.313 85.64 28.337 85.128 29.361 84.616C41.137 77.704 44.721 60.552 45.105 48.008C45.361 41.864 44.977 35.848 44.209 29.96C43.953 28.168 43.569 26.376 43.313 24.712C43.185 24.328 42.929 24.072 42.545 24.2C40.113 24.328 37.681 24.584 35.249 24.84C32.433 25.096 29.489 25.224 26.673 25.352C26.417 25.352 26.289 25.48 26.033 25.48C25.521 25.608 25.265 25.864 25.265 26.376C25.137 26.888 25.137 27.528 25.137 28.168ZM65.821 58.632C65.693 47.112 65.693 35.464 65.693 23.816C65.693 23.048 65.693 22.152 65.181 21.512C64.925 21.256 64.925 20.872 64.925 20.616C64.925 18.824 64.925 16.904 64.925 15.112C64.925 14.856 64.925 14.728 65.053 14.472C65.181 14.088 65.437 13.832 65.821 13.832C65.949 13.704 66.205 13.704 66.461 13.704C67.869 13.704 67.869 13.704 67.869 12.296C67.997 11.528 67.997 11.4 68.765 11.272C69.405 11.272 70.173 11.144 70.813 11.144C74.013 11.144 77.213 11.144 80.413 11.144C81.949 11.144 83.613 11.144 85.149 11.144C89.885 11.4 94.749 11.4 99.485 11.4C99.869 11.4 100.253 11.4 100.509 11.4C101.149 11.4 101.661 11.4 102.173 11.144C103.709 11.4 105.373 11.144 106.525 12.552C107.805 13.832 109.085 14.984 110.365 16.264C110.877 16.648 111.133 17.288 111.261 17.928C111.773 21.128 111.901 24.456 111.645 27.656C110.749 39.176 107.293 51.976 97.181 58.76C96.925 58.888 96.669 59.016 96.541 59.272C96.029 59.528 95.901 59.784 96.157 60.296C97.309 63.112 98.333 65.8 99.485 68.488C102.685 76.168 105.757 83.72 108.829 91.4C109.341 92.424 109.725 93.576 110.109 94.728C110.237 94.984 110.365 95.368 110.365 95.752C110.493 96.392 110.365 96.776 109.725 97.032C107.421 97.928 105.245 99.208 102.941 99.976C101.789 100.36 100.765 100.872 99.613 101.384C99.229 101.384 98.845 101.384 98.717 101C98.333 100.488 97.949 99.72 97.693 99.08C96.413 96.264 95.261 93.448 94.109 90.504C90.653 82.312 87.325 74.12 83.997 65.8C83.869 65.544 83.741 65.16 83.485 64.904C83.357 64.648 83.101 64.52 82.845 64.52C82.717 64.52 82.461 64.52 82.333 64.52C82.077 64.52 81.821 64.52 81.437 64.52C78.749 64.904 79.133 64.648 79.133 67.08C79.133 75.272 79.133 86.792 79.133 94.856C79.133 96.008 79.133 97.288 79.005 98.44C79.005 99.336 78.621 99.592 77.725 99.592C75.037 99.592 72.221 99.72 69.405 99.72C68.637 99.72 67.741 99.72 66.973 99.72C66.461 99.72 66.077 99.464 66.077 98.952C65.949 98.312 65.821 97.672 65.821 97.032C65.821 93.704 65.821 86.792 65.821 83.464C65.821 75.144 65.821 66.952 65.821 58.632ZM97.309 24.712C94.365 24.712 91.549 24.712 88.605 24.712C86.173 24.584 83.613 24.584 81.181 24.584C80.669 24.584 80.157 24.584 79.645 24.712C79.389 24.712 79.133 24.968 79.005 25.224C79.005 25.48 79.005 25.864 79.005 26.248C79.005 34.056 79.005 41.864 79.005 49.672C79.005 50.056 79.005 50.44 79.005 50.696C79.133 51.08 79.389 51.208 79.645 51.208C80.157 51.208 80.541 51.208 80.925 51.208C82.589 50.696 84.253 50.44 85.789 49.8C96.029 45.448 97.309 35.848 98.333 25.864C98.333 24.84 98.205 24.712 97.309 24.712ZM142.598 56.968C139.782 56.968 136.838 56.968 134.022 56.968C133.638 56.968 133.126 56.968 132.742 57.096C132.102 57.096 131.846 57.352 131.974 57.864C132.87 67.592 137.862 74.888 145.414 81.032C149.254 83.72 153.478 85.256 157.83 86.664C158.982 86.92 160.006 87.048 161.158 87.048C161.542 87.048 161.798 87.048 162.182 87.048C162.822 87.176 163.334 87.688 163.206 88.328C162.822 89.992 163.334 91.656 163.334 93.32C163.206 94.984 163.334 96.776 163.334 98.44C163.334 99.464 163.334 99.592 162.182 99.976C161.67 100.232 161.03 100.36 160.262 100.36C158.214 100.36 156.422 100.232 154.502 99.592C151.302 98.44 148.102 97.416 144.902 96.136C132.486 91.016 121.222 75.656 119.046 62.856C118.918 61.576 118.79 60.168 118.534 58.76C118.022 54.664 118.15 50.44 118.406 46.344C118.918 38.152 119.046 29.832 119.046 21.64C119.046 20.104 119.046 18.568 118.79 17.032C118.534 15.88 118.534 14.728 119.814 13.96C119.942 13.832 119.942 13.704 119.942 13.576C120.07 12.424 121.094 12.296 121.862 12.04C121.99 12.04 122.118 12.04 122.246 12.04C122.63 12.04 122.886 12.04 123.27 12.04C126.726 12.04 130.182 12.04 133.638 11.912C134.918 11.912 136.198 11.784 137.606 11.784C139.91 11.656 142.214 11.656 144.646 11.528C149.894 11.4 155.014 11.272 160.262 11.144C160.646 11.144 161.03 11.144 161.414 11.144C162.054 11.144 162.566 11.144 163.078 11.4C163.718 11.656 164.102 11.912 164.23 12.552C164.486 14.728 164.87 16.776 164.614 18.952C164.998 20.36 164.486 21.896 164.87 23.304C164.998 23.816 164.614 24.2 164.102 24.2C163.846 24.328 163.59 24.328 163.206 24.328C158.214 24.584 153.222 24.712 148.23 24.84C143.366 24.84 138.374 25.096 133.51 25.224C133.382 25.224 133.382 25.224 133.254 25.224C132.486 25.352 132.358 25.48 132.358 26.248C132.358 31.112 132.358 36.104 131.974 40.968C131.974 41.608 131.974 42.12 131.974 42.76C131.974 43.528 132.102 43.656 132.742 43.784C133.382 43.784 134.022 43.784 134.534 43.784C139.91 43.784 145.158 43.784 150.406 43.784C151.302 43.784 152.07 43.912 152.838 44.04C153.35 44.04 153.734 44.424 153.734 44.936C153.734 47.368 154.118 49.672 153.99 52.104C153.862 53.384 153.606 54.664 153.99 55.944C153.99 56.456 153.606 56.84 152.966 56.968C152.454 56.968 151.814 56.968 151.302 56.968C148.358 56.968 145.542 56.968 142.598 56.968ZM217.842 87.176C218.098 90.12 218.226 93.192 218.482 96.136C218.482 96.392 218.482 96.648 218.482 96.776C218.482 99.208 218.61 99.208 216.05 99.464C213.49 99.72 211.058 99.976 208.498 99.976C207.858 100.104 207.218 100.232 206.578 100.36C206.066 100.36 205.682 100.104 205.554 99.592C205.426 99.208 205.298 98.696 205.298 98.184C205.042 95.496 204.914 92.808 204.658 90.248C204.658 89.352 204.53 88.584 204.402 87.816C204.274 87.304 204.018 87.048 203.506 87.176C200.818 87.688 198.002 87.432 195.314 87.816C193.266 88.2 191.09 88.2 189.042 88.456C188.53 88.456 188.146 88.456 187.634 88.456C186.738 88.584 186.482 88.712 186.354 89.608C186.098 90.76 185.97 91.784 185.842 92.936C185.33 95.24 184.946 97.544 184.562 99.848C184.434 100.36 184.178 101 184.05 101.512C183.922 102.024 183.538 102.152 183.026 102.152C180.338 101.64 177.65 101.64 174.962 101C174.322 100.744 173.682 100.744 173.042 100.744C171.378 100.488 171.122 100.232 171.25 98.568C171.378 97.416 171.634 96.264 171.89 95.112C173.682 83.848 175.602 72.584 177.778 61.448C178.674 55.944 179.57 50.44 180.594 44.936C181.49 39.56 182.514 34.056 183.41 28.68C183.922 25.864 184.434 23.176 184.946 20.36C185.074 19.464 185.33 18.568 185.842 17.672C185.97 17.416 186.226 17.16 186.226 17.032C186.098 15.24 187.378 15.368 188.402 15.112C188.658 15.112 189.042 15.112 189.298 15.112C189.554 15.112 189.938 15.112 190.066 15.24C190.578 15.496 190.962 15.496 191.474 15.496C191.986 15.496 192.626 15.496 193.138 15.368C193.522 15.368 193.906 15.24 194.29 15.24C199.666 14.728 204.914 14.6 210.29 14.6C210.802 14.6 211.314 14.6 211.826 14.6C212.082 14.728 212.338 14.984 212.466 15.112C212.594 15.368 212.722 15.752 212.722 16.008C212.978 20.36 213.362 24.84 213.618 29.192C214.386 37.384 215.026 45.704 215.41 53.896C215.922 59.912 216.434 65.928 216.69 71.944C217.202 76.936 217.586 82.184 217.842 87.176ZM190.706 74.76C190.834 74.76 190.834 74.76 190.578 74.76C194.674 74.632 198.77 74.248 202.866 73.864C203.25 73.864 203.506 73.608 203.506 73.096C202.738 64.904 201.97 56.712 201.714 48.52C201.458 45.192 201.202 41.736 200.946 38.408C200.69 35.208 200.562 32.008 200.306 28.808C200.178 27.784 200.05 26.888 199.922 25.864C199.922 25.736 199.794 25.48 199.666 25.352C199.41 25.224 199.154 25.224 198.898 25.224C198.13 25.224 197.49 25.736 197.362 26.504C195.442 38.152 193.266 49.672 191.218 61.32C190.578 65.16 189.938 69.128 189.298 72.968C189.042 74.504 189.042 74.76 189.938 74.76C190.066 74.76 190.322 74.76 190.706 74.76ZM300.242 55.176C300.37 62.728 300.626 70.408 300.754 77.96C301.01 84.744 301.138 91.4 301.138 98.184C301.138 98.568 301.138 99.08 301.01 99.464C301.01 99.72 300.626 99.848 300.498 100.104C300.37 100.104 300.37 100.104 300.242 100.104C298.194 100.104 296.274 100.488 294.226 100.488C293.842 100.488 293.33 100.488 292.946 100.488C291.794 100.488 290.514 100.616 289.234 100.616C288.722 100.616 288.338 100.36 288.21 99.72C288.082 99.336 287.954 98.824 287.954 98.44C287.954 97.672 287.954 96.776 287.954 96.008C287.698 88.968 287.57 79.752 287.442 72.712C287.314 69 287.186 65.288 287.058 61.704C287.058 61.576 287.058 61.576 287.058 61.448C286.802 54.024 286.674 46.6 286.546 39.176C286.418 37.256 286.29 35.464 286.162 33.672C286.162 33.544 286.034 33.416 285.906 33.416C285.778 33.416 285.65 33.544 285.65 33.544C285.266 34.312 284.754 34.952 284.37 35.72C275.282 52.488 269.138 79.88 268.498 98.312C268.498 98.824 268.242 99.208 267.986 99.72C267.858 100.232 267.346 100.488 266.834 100.488C265.682 100.488 264.53 100.616 263.378 100.616C262.354 100.616 261.458 100.488 260.434 100.232C260.306 100.232 260.178 100.232 260.05 100.232C259.794 100.232 259.538 100.232 259.41 100.232C258.514 100.232 257.746 100.232 256.978 100.232C255.954 100.104 255.826 99.848 255.698 98.824C255.698 94.6 255.442 90.504 254.93 86.408C254.802 84.872 254.546 83.208 254.418 81.672C253.906 76.808 253.394 71.944 252.882 67.208C252.498 63.112 252.114 59.016 251.602 54.92C251.09 50.312 250.578 45.704 250.066 41.096C249.682 37.768 248.914 32.648 248.658 29.32C248.53 28.808 248.53 28.424 248.402 27.912C248.402 27.784 248.146 27.656 248.018 27.4C247.89 27.528 247.762 27.656 247.762 27.656C247.378 28.168 247.122 28.68 246.866 29.192C245.202 32.264 244.434 37.128 243.41 40.456C240.21 51.848 238.802 63.752 238.418 75.528C238.418 82.824 238.418 90.248 238.418 97.544C238.418 98.184 238.418 98.696 238.418 99.336C238.418 100.104 238.162 100.36 237.266 100.488C234.322 100.616 231.506 100.744 228.562 100.744C227.922 100.744 227.154 101 226.514 101C226.13 101.128 225.618 100.744 225.49 100.36C225.362 99.976 225.362 99.464 225.234 99.08C225.234 98.312 225.234 97.416 225.234 96.648C225.106 92.808 224.85 88.84 224.85 85C224.85 67.592 227.41 37 234.962 22.92C236.882 19.336 239.186 16.392 242.002 13.576C243.282 12.552 244.818 12.424 246.354 12.424C249.938 12.296 253.394 12.04 256.978 11.912C257.362 11.784 257.746 11.784 258.002 11.784C259.538 11.912 260.05 12.296 260.178 13.704C260.946 18.952 261.586 24.328 261.97 29.576C262.61 34.824 263.506 41.864 264.146 47.112C264.146 47.368 264.146 47.496 264.274 47.752C264.274 47.88 264.402 47.88 264.53 47.88C264.658 48.008 264.658 47.88 264.786 47.88C265.042 47.24 265.17 46.6 265.426 45.96C269.138 35.336 277.33 15.496 289.362 12.552C289.746 12.424 290.002 12.296 290.258 12.424C290.514 12.424 290.642 12.424 290.898 12.424C292.946 12.424 294.994 11.912 296.914 11.912C297.042 11.784 297.298 11.784 297.554 11.784C298.194 11.912 298.962 12.552 298.962 13.32C299.09 16.392 299.346 19.592 299.346 22.792C299.602 27.4 299.602 32.136 299.73 36.872C299.858 40.584 299.858 44.296 299.986 47.88C300.114 50.312 300.242 52.744 300.242 55.176Z" fill="#192F60"/>
<path d="M42.0613 138.8H41.9113C41.9113 128.75 42.0613 118.7 42.3613 108.65C42.3613 107.6 42.6613 107.45 43.5613 107.45C47.3113 107.45 51.0613 107.3 54.8113 107.3C56.3113 107.3 57.3613 108.35 57.3613 109.85C57.5113 110.9 57.5113 111.95 57.5113 113C57.3613 114.65 57.3613 121.25 57.8113 123.05C57.8113 130.85 57.6613 138.5 57.5113 146.3C57.5113 158.45 57.0613 170.6 56.3113 182.75C56.3113 187.85 52.5613 196.7 49.7113 200.75C44.7613 208.85 33.9613 211.55 25.1113 212.15C24.5113 212.15 24.0613 212.15 23.6113 212.15C22.2613 212.15 21.0613 212.15 19.8613 212C18.3613 212 16.8613 211.85 15.2113 211.7C13.5613 211.55 11.7613 211.25 9.96133 211.25C9.66133 211.25 9.36133 211.25 9.06133 211.25C8.46133 211.4 8.01133 210.95 8.01133 210.35C7.86133 209.45 7.86133 208.4 7.86133 207.5C8.01133 205.1 8.01133 202.7 8.16133 200.3C8.46133 194 8.61133 187.7 8.76133 181.4C8.91133 179 9.06133 176.45 9.21133 173.9C9.36133 173.45 9.36133 173 9.51133 172.4C9.96133 171.35 10.1113 171.2 11.4613 171.05C11.7613 171.05 12.2113 171.05 12.6613 171.05C13.5613 170.9 14.6113 170.75 15.5113 170.75C16.1113 170.9 16.8613 170.9 17.6113 170.9C18.2113 170.9 18.9613 170.9 19.7113 170.9C20.6113 170.9 21.5113 170.9 22.4113 171.05C22.7113 171.2 23.0113 171.05 23.1613 171.05C24.5113 171.05 24.6613 171.2 24.6613 172.4C24.6613 175.7 24.6613 179 24.5113 182.3C24.3613 186.65 24.2113 191 24.0613 195.5C24.0613 195.95 24.3613 196.25 24.8113 196.25C27.5113 196.1 30.2113 195.8 32.6113 194.75C38.7613 192.65 41.0113 183.35 41.0113 177.65C40.8613 174.95 41.1613 172.1 41.3113 169.4C41.3113 167.6 41.3113 165.8 41.4613 164C41.6113 161.15 41.7613 158.3 41.7613 155.45C41.9113 149.9 41.9113 144.35 42.0613 138.8ZM119.854 195.8C120.154 199.25 120.304 202.85 120.604 206.3C120.604 206.6 120.604 206.9 120.604 207.05C120.604 209.9 120.754 209.9 117.754 210.2C114.754 210.5 111.904 210.8 108.904 210.8C108.154 210.95 107.404 211.1 106.654 211.25C106.054 211.25 105.604 210.95 105.454 210.35C105.304 209.9 105.154 209.3 105.154 208.7C104.854 205.55 104.704 202.4 104.404 199.4C104.404 198.35 104.254 197.45 104.104 196.55C103.954 195.95 103.654 195.65 103.054 195.8C99.9039 196.4 96.6039 196.1 93.4539 196.55C91.0539 197 88.5039 197 86.1039 197.3C85.5039 197.3 85.0539 197.3 84.4539 197.3C83.4039 197.45 83.1039 197.6 82.9539 198.65C82.6539 200 82.5039 201.2 82.3539 202.55C81.7539 205.25 81.3039 207.95 80.8539 210.65C80.7039 211.25 80.4039 212 80.2539 212.6C80.1039 213.2 79.6539 213.35 79.0539 213.35C75.9039 212.75 72.7539 212.75 69.6039 212C68.8539 211.7 68.1039 211.7 67.3539 211.7C65.4039 211.4 65.1039 211.1 65.2539 209.15C65.4039 207.8 65.7039 206.45 66.0039 205.1C68.1039 191.9 70.3539 178.7 72.9039 165.65C73.9539 159.2 75.0039 152.75 76.2039 146.3C77.2539 140 78.4539 133.55 79.5039 127.25C80.1039 123.95 80.7039 120.8 81.3039 117.5C81.4539 116.45 81.7539 115.4 82.3539 114.35C82.5039 114.05 82.8039 113.75 82.8039 113.6C82.6539 111.5 84.1539 111.65 85.3539 111.35C85.6539 111.35 86.1039 111.35 86.4039 111.35C86.7039 111.35 87.1539 111.35 87.3039 111.5C87.9039 111.8 88.3539 111.8 88.9539 111.8C89.5539 111.8 90.3039 111.8 90.9039 111.65C91.3539 111.65 91.8039 111.5 92.2539 111.5C98.5539 110.9 104.704 110.75 111.004 110.75C111.604 110.75 112.204 110.75 112.804 110.75C113.104 110.9 113.404 111.2 113.554 111.35C113.704 111.65 113.854 112.1 113.854 112.4C114.154 117.5 114.604 122.75 114.904 127.85C115.804 137.45 116.554 147.2 117.004 156.8C117.604 163.85 118.204 170.9 118.504 177.95C119.104 183.8 119.554 189.95 119.854 195.8ZM88.0539 181.25C88.2039 181.25 88.2039 181.25 87.9039 181.25C92.7039 181.1 97.5039 180.65 102.304 180.2C102.754 180.2 103.054 179.9 103.054 179.3C102.154 169.7 101.254 160.1 100.954 150.5C100.654 146.6 100.354 142.55 100.054 138.65C99.7539 134.9 99.6039 131.15 99.3039 127.4C99.1539 126.2 99.0039 125.15 98.8539 123.95C98.8539 123.8 98.7039 123.5 98.5539 123.35C98.2539 123.2 97.9539 123.2 97.6539 123.2C96.7539 123.2 96.0039 123.8 95.8539 124.7C93.6039 138.35 91.0539 151.85 88.6539 165.5C87.9039 170 87.1539 174.65 86.4039 179.15C86.1039 180.95 86.1039 181.25 87.1539 181.25C87.3039 181.25 87.6039 181.25 88.0539 181.25ZM128.066 204.35C128.216 176.6 128.666 148.85 129.116 121.1C129.116 118.7 129.266 116.3 129.416 113.9C129.416 113.15 129.566 112.4 129.866 111.8C130.466 110.6 130.616 109.25 130.616 107.9C130.466 107 130.766 106.7 131.816 106.7C132.416 106.7 133.016 106.7 133.616 106.7C135.416 106.7 137.216 106.7 139.016 106.7C139.916 106.7 140.666 106.7 141.566 106.7C146.966 107.15 152.366 107 157.616 107.3C162.416 107.6 167.366 107.6 172.166 107.75C173.966 107.75 175.766 108.05 177.566 108.05C178.166 108.05 178.616 108.2 179.216 108.2C179.966 108.2 180.716 108.05 181.316 107.75C181.616 107.75 182.066 107.9 182.216 108.2C182.516 108.65 182.816 109.25 182.966 109.7C183.266 110.45 183.566 110.75 184.316 110.75C184.616 110.75 184.916 111.05 185.066 111.35C185.066 111.65 185.216 112.1 185.216 112.4C185.966 116.45 186.266 120.5 185.816 124.55C183.866 142.4 176.066 157.7 160.166 167.45C159.716 167.6 159.266 167.9 158.816 168.2C154.766 171.05 150.416 172.85 145.616 173.9C145.316 174.05 145.016 174.05 144.716 174.2C144.416 174.35 144.116 174.65 144.116 174.95C143.966 175.7 144.116 176.6 143.966 177.35C143.966 184.7 143.966 195.95 143.816 203.3C143.816 205.55 143.666 207.65 143.516 209.75C143.516 210.8 143.216 211.1 142.316 211.1C140.816 211.1 139.316 211.1 137.816 211.4C137.666 211.4 137.366 211.4 137.216 211.4C136.766 211.4 136.316 211.4 135.866 211.4C133.766 211.25 131.816 211.25 129.866 211.25C128.816 211.25 128.366 210.95 128.216 210.05C128.216 209.45 128.066 208.85 128.066 208.25C128.066 206.9 128.066 205.55 128.066 204.35ZM144.716 124.4C144.716 129.65 144.566 134.9 144.566 140.15C144.566 145.1 144.416 149.9 144.416 154.85C144.416 155.6 144.416 156.2 144.416 156.95C144.416 157.55 144.566 157.85 144.866 157.85C145.016 157.85 145.166 157.85 145.316 157.7C148.466 156.35 151.316 154.55 154.016 152.6C163.466 146.3 168.866 135.95 169.916 124.85C170.066 123.8 169.766 123.5 168.866 123.5C168.116 123.35 167.366 123.2 166.616 123.2C165.716 123.2 164.816 123.2 164.066 123.2C160.166 123.05 156.266 123.2 152.366 122.75C150.116 122.6 147.866 122.6 145.616 122.6C145.016 122.6 144.716 122.9 144.716 123.65C144.716 123.8 144.716 124.1 144.716 124.4ZM232.881 195.8C233.181 199.25 233.331 202.85 233.631 206.3C233.631 206.6 233.631 206.9 233.631 207.05C233.631 209.9 233.781 209.9 230.781 210.2C227.781 210.5 224.931 210.8 221.931 210.8C221.181 210.95 220.431 211.1 219.681 211.25C219.081 211.25 218.631 210.95 218.481 210.35C218.331 209.9 218.181 209.3 218.181 208.7C217.881 205.55 217.731 202.4 217.431 199.4C217.431 198.35 217.281 197.45 217.131 196.55C216.981 195.95 216.681 195.65 216.081 195.8C212.931 196.4 209.631 196.1 206.481 196.55C204.081 197 201.531 197 199.131 197.3C198.531 197.3 198.081 197.3 197.481 197.3C196.431 197.45 196.131 197.6 195.981 198.65C195.681 200 195.531 201.2 195.381 202.55C194.781 205.25 194.331 207.95 193.881 210.65C193.731 211.25 193.431 212 193.281 212.6C193.131 213.2 192.681 213.35 192.081 213.35C188.931 212.75 185.781 212.75 182.631 212C181.881 211.7 181.131 211.7 180.381 211.7C178.431 211.4 178.131 211.1 178.281 209.15C178.431 207.8 178.731 206.45 179.031 205.1C181.131 191.9 183.381 178.7 185.931 165.65C186.981 159.2 188.031 152.75 189.231 146.3C190.281 140 191.481 133.55 192.531 127.25C193.131 123.95 193.731 120.8 194.331 117.5C194.481 116.45 194.781 115.4 195.381 114.35C195.531 114.05 195.831 113.75 195.831 113.6C195.681 111.5 197.181 111.65 198.381 111.35C198.681 111.35 199.131 111.35 199.431 111.35C199.731 111.35 200.181 111.35 200.331 111.5C200.931 111.8 201.381 111.8 201.981 111.8C202.581 111.8 203.331 111.8 203.931 111.65C204.381 111.65 204.831 111.5 205.281 111.5C211.581 110.9 217.731 110.75 224.031 110.75C224.631 110.75 225.231 110.75 225.831 110.75C226.131 110.9 226.431 111.2 226.581 111.35C226.731 111.65 226.881 112.1 226.881 112.4C227.181 117.5 227.631 122.75 227.931 127.85C228.831 137.45 229.581 147.2 230.031 156.8C230.631 163.85 231.231 170.9 231.531 177.95C232.131 183.8 232.581 189.95 232.881 195.8ZM201.081 181.25C201.231 181.25 201.231 181.25 200.931 181.25C205.731 181.1 210.531 180.65 215.331 180.2C215.781 180.2 216.081 179.9 216.081 179.3C215.181 169.7 214.281 160.1 213.981 150.5C213.681 146.6 213.381 142.55 213.081 138.65C212.781 134.9 212.631 131.15 212.331 127.4C212.181 126.2 212.031 125.15 211.881 123.95C211.881 123.8 211.731 123.5 211.581 123.35C211.281 123.2 210.981 123.2 210.681 123.2C209.781 123.2 209.031 123.8 208.881 124.7C206.631 138.35 204.081 151.85 201.681 165.5C200.931 170 200.181 174.65 199.431 179.15C199.131 180.95 199.131 181.25 200.181 181.25C200.331 181.25 200.631 181.25 201.081 181.25ZM296.144 158C295.844 161.3 295.844 164.45 295.694 167.6C295.544 171.95 295.544 176.45 295.394 180.8C295.244 185.45 295.244 189.95 295.094 194.45C294.944 198.65 294.794 205.1 294.644 209.15C294.644 209.6 294.644 210.05 294.494 210.5C294.344 211.7 294.044 211.85 292.844 211.85C291.644 212 290.444 212 289.244 212.15C286.394 212.15 283.544 212 280.694 211.85C279.794 211.85 279.344 211.7 279.194 210.8C279.194 199.25 279.344 187.85 279.794 176.3C279.944 172.7 280.094 169.25 280.094 165.65C280.244 164.75 280.094 164 279.644 163.1C278.744 161 277.994 158.6 277.094 156.35C273.344 146 268.244 136.55 260.894 128.45C260.294 127.7 259.544 127.1 258.794 126.5C258.644 126.35 258.344 126.35 258.194 126.2C258.044 126.35 258.044 126.5 258.044 126.65C257.894 127.4 257.894 128.15 257.894 128.75C257.744 137.3 257.594 145.7 257.444 154.1C257.444 158.75 257.444 163.25 257.294 167.9C257.294 174.65 256.994 181.4 256.994 188.3C256.844 191.75 256.844 195.2 256.844 198.65C256.844 200.9 256.694 205.85 256.544 208.1C256.394 208.55 256.394 209.15 256.244 209.6C255.944 210.5 255.644 210.65 254.744 210.8C253.694 210.8 252.794 210.95 251.894 211.1C251.444 211.1 250.994 211.25 250.544 211.25C249.794 211.1 248.894 211.1 247.994 211.1C247.394 211.1 246.644 211.1 245.894 211.1C245.294 211.1 244.544 211.1 243.944 210.95C243.644 210.95 243.344 210.95 242.894 210.95C242.594 210.95 242.444 210.95 242.294 210.95C241.244 210.95 241.394 210.8 241.244 209.3C240.944 204.8 241.094 197.9 241.244 193.4C241.394 185.75 241.394 178.25 241.544 170.6C241.694 159.8 241.844 149 242.144 138.2C242.144 129.35 242.144 120.5 242.894 111.65C243.044 111.2 243.344 110.9 243.794 110.9C244.544 110.9 245.144 110.9 245.894 110.9C246.344 110.75 246.344 110.6 246.344 110.15C246.344 108.95 246.344 108.95 247.244 108.65C249.344 107.9 251.594 107.45 253.844 107.45C256.094 107.45 257.894 107.9 259.994 108.65C267.944 112.1 274.394 119.15 279.344 126.2C279.794 126.95 280.244 127.55 280.694 128.15H280.994C281.294 127.85 281.294 123.35 281.294 122.75C281.444 118.7 281.594 114.8 281.744 110.75C281.744 110.3 281.744 110 281.894 109.55C282.044 108.35 282.494 107.9 283.844 107.9C284.594 107.9 285.344 107.75 286.094 107.75C286.844 107.6 287.594 107.45 288.194 107.45C288.794 107.45 289.394 107.6 289.994 107.75C290.294 107.9 290.594 107.9 290.894 107.75C291.344 107.6 291.794 107.6 292.244 107.6C293.144 107.6 294.194 107.75 295.244 107.75C295.544 107.75 295.844 107.75 296.144 107.75C296.744 107.75 297.194 108.05 297.194 108.95C297.194 114.5 297.194 120.05 296.744 125.45C296.444 136.25 296.144 147.2 296.144 158Z" fill="#192F60"/>
</svg>
