<svg width="305" height="247" viewBox="0 0 305 247" fill="none" xmlns="http://www.w3.org/2000/svg">
<path d="M8.953 53.024C8.953 41.248 8.825 29.344 8.825 17.568C8.825 16.16 8.825 14.88 8.953 13.6C8.953 12.704 9.337 12.576 10.105 12.448C12.921 11.936 15.737 11.68 18.553 11.552C21.113 11.424 23.545 11.04 25.977 10.784C26.233 10.784 26.361 10.784 26.489 10.784C29.305 10.528 32.121 10.4 35.065 10.144C37.497 10.016 40.057 9.75999 42.489 9.504C43.257 9.504 43.897 9.504 44.281 10.016C46.073 11.808 48.377 12.96 50.297 14.496C52.345 16.032 52.345 16.032 52.857 18.336C54.521 26.528 55.545 34.72 55.545 43.04C55.545 58.4 52.985 74.4 42.873 86.688C36.985 93.856 27.001 100 17.529 100C17.145 100 16.633 100 16.377 99.616C14.457 97.568 12.025 96.032 10.361 93.856C9.721 93.088 9.337 92.448 9.337 91.424C9.465 90.016 9.337 88.736 9.337 87.328C9.209 75.936 9.081 64.416 8.953 53.024ZM22.137 27.168C22.393 45.728 22.649 64.416 22.649 82.976C22.649 83.616 22.649 84.128 22.649 84.768C22.649 85.024 23.033 85.28 23.289 85.152C24.313 84.64 25.337 84.128 26.361 83.616C38.137 76.704 41.721 59.552 42.105 47.008C42.361 40.864 41.977 34.848 41.209 28.96C40.953 27.168 40.569 25.376 40.313 23.712C40.185 23.328 39.929 23.072 39.545 23.2C37.113 23.328 34.681 23.584 32.249 23.84C29.433 24.096 26.489 24.224 23.673 24.352C23.417 24.352 23.289 24.48 23.033 24.48C22.521 24.608 22.265 24.864 22.265 25.376C22.137 25.888 22.137 26.528 22.137 27.168ZM62.821 57.632C62.693 46.112 62.693 34.464 62.693 22.816C62.693 22.048 62.693 21.152 62.181 20.512C61.925 20.256 61.925 19.872 61.925 19.616C61.925 17.824 61.925 15.904 61.925 14.112C61.925 13.856 61.925 13.728 62.053 13.472C62.181 13.088 62.437 12.832 62.821 12.832C62.949 12.704 63.205 12.704 63.461 12.704C64.869 12.704 64.869 12.704 64.869 11.296C64.997 10.528 64.997 10.4 65.765 10.272C66.405 10.272 67.173 10.144 67.813 10.144C71.013 10.144 74.213 10.144 77.413 10.144C78.949 10.144 80.613 10.144 82.149 10.144C86.885 10.4 91.749 10.4 96.485 10.4C96.869 10.4 97.253 10.4 97.509 10.4C98.149 10.4 98.661 10.4 99.173 10.144C100.709 10.4 102.373 10.144 103.525 11.552C104.805 12.832 106.085 13.984 107.365 15.264C107.877 15.648 108.133 16.288 108.261 16.928C108.773 20.128 108.901 23.456 108.645 26.656C107.749 38.176 104.293 50.976 94.181 57.76C93.925 57.888 93.669 58.016 93.541 58.272C93.029 58.528 92.901 58.784 93.157 59.296C94.309 62.112 95.333 64.8 96.485 67.488C99.685 75.168 102.757 82.72 105.829 90.4C106.341 91.424 106.725 92.576 107.109 93.728C107.237 93.984 107.365 94.368 107.365 94.752C107.493 95.392 107.365 95.776 106.725 96.032C104.421 96.928 102.245 98.208 99.941 98.976C98.789 99.36 97.765 99.872 96.613 100.384C96.229 100.384 95.845 100.384 95.717 100C95.333 99.488 94.949 98.72 94.693 98.08C93.413 95.264 92.261 92.448 91.109 89.504C87.653 81.312 84.325 73.12 80.997 64.8C80.869 64.544 80.741 64.16 80.485 63.904C80.357 63.648 80.101 63.52 79.845 63.52C79.717 63.52 79.461 63.52 79.333 63.52C79.077 63.52 78.821 63.52 78.437 63.52C75.749 63.904 76.133 63.648 76.133 66.08C76.133 74.272 76.133 85.792 76.133 93.856C76.133 95.008 76.133 96.288 76.005 97.44C76.005 98.336 75.621 98.592 74.725 98.592C72.037 98.592 69.221 98.72 66.405 98.72C65.637 98.72 64.741 98.72 63.973 98.72C63.461 98.72 63.077 98.464 63.077 97.952C62.949 97.312 62.821 96.672 62.821 96.032C62.821 92.704 62.821 85.792 62.821 82.464C62.821 74.144 62.821 65.952 62.821 57.632ZM94.309 23.712C91.365 23.712 88.549 23.712 85.605 23.712C83.173 23.584 80.613 23.584 78.181 23.584C77.669 23.584 77.157 23.584 76.645 23.712C76.389 23.712 76.133 23.968 76.005 24.224C76.005 24.48 76.005 24.864 76.005 25.248C76.005 33.056 76.005 40.864 76.005 48.672C76.005 49.056 76.005 49.44 76.005 49.696C76.133 50.08 76.389 50.208 76.645 50.208C77.157 50.208 77.541 50.208 77.925 50.208C79.589 49.696 81.253 49.44 82.789 48.8C93.029 44.448 94.309 34.848 95.333 24.864C95.333 23.84 95.205 23.712 94.309 23.712ZM139.598 55.968C136.782 55.968 133.838 55.968 131.022 55.968C130.638 55.968 130.126 55.968 129.742 56.096C129.102 56.096 128.846 56.352 128.974 56.864C129.87 66.592 134.862 73.888 142.414 80.032C146.254 82.72 150.478 84.256 154.83 85.664C155.982 85.92 157.006 86.048 158.158 86.048C158.542 86.048 158.798 86.048 159.182 86.048C159.822 86.176 160.334 86.688 160.206 87.328C159.822 88.992 160.334 90.656 160.334 92.32C160.206 93.984 160.334 95.776 160.334 97.44C160.334 98.464 160.334 98.592 159.182 98.976C158.67 99.232 158.03 99.36 157.262 99.36C155.214 99.36 153.422 99.232 151.502 98.592C148.302 97.44 145.102 96.416 141.902 95.136C129.486 90.016 118.222 74.656 116.046 61.856C115.918 60.576 115.79 59.168 115.534 57.76C115.022 53.664 115.15 49.44 115.406 45.344C115.918 37.152 116.046 28.832 116.046 20.64C116.046 19.104 116.046 17.568 115.79 16.032C115.534 14.88 115.534 13.728 116.814 12.96C116.942 12.832 116.942 12.704 116.942 12.576C117.07 11.424 118.094 11.296 118.862 11.04C118.99 11.04 119.118 11.04 119.246 11.04C119.63 11.04 119.886 11.04 120.27 11.04C123.726 11.04 127.182 11.04 130.638 10.912C131.918 10.912 133.198 10.784 134.606 10.784C136.91 10.656 139.214 10.656 141.646 10.528C146.894 10.4 152.014 10.272 157.262 10.144C157.646 10.144 158.03 10.144 158.414 10.144C159.054 10.144 159.566 10.144 160.078 10.4C160.718 10.656 161.102 10.912 161.23 11.552C161.486 13.728 161.87 15.776 161.614 17.952C161.998 19.36 161.486 20.896 161.87 22.304C161.998 22.816 161.614 23.2 161.102 23.2C160.846 23.328 160.59 23.328 160.206 23.328C155.214 23.584 150.222 23.712 145.23 23.84C140.366 23.84 135.374 24.096 130.51 24.224C130.382 24.224 130.382 24.224 130.254 24.224C129.486 24.352 129.358 24.48 129.358 25.248C129.358 30.112 129.358 35.104 128.974 39.968C128.974 40.608 128.974 41.12 128.974 41.76C128.974 42.528 129.102 42.656 129.742 42.784C130.382 42.784 131.022 42.784 131.534 42.784C136.91 42.784 142.158 42.784 147.406 42.784C148.302 42.784 149.07 42.912 149.838 43.04C150.35 43.04 150.734 43.424 150.734 43.936C150.734 46.368 151.118 48.672 150.99 51.104C150.862 52.384 150.606 53.664 150.99 54.944C150.99 55.456 150.606 55.84 149.966 55.968C149.454 55.968 148.814 55.968 148.302 55.968C145.358 55.968 142.542 55.968 139.598 55.968ZM214.842 86.176C215.098 89.12 215.226 92.192 215.482 95.136C215.482 95.392 215.482 95.648 215.482 95.776C215.482 98.208 215.61 98.208 213.05 98.464C210.49 98.72 208.058 98.976 205.498 98.976C204.858 99.104 204.218 99.232 203.578 99.36C203.066 99.36 202.682 99.104 202.554 98.592C202.426 98.208 202.298 97.696 202.298 97.184C202.042 94.496 201.914 91.808 201.658 89.248C201.658 88.352 201.53 87.584 201.402 86.816C201.274 86.304 201.018 86.048 200.506 86.176C197.818 86.688 195.002 86.432 192.314 86.816C190.266 87.2 188.09 87.2 186.042 87.456C185.53 87.456 185.146 87.456 184.634 87.456C183.738 87.584 183.482 87.712 183.354 88.608C183.098 89.76 182.97 90.784 182.842 91.936C182.33 94.24 181.946 96.544 181.562 98.848C181.434 99.36 181.178 100 181.05 100.512C180.922 101.024 180.538 101.152 180.026 101.152C177.338 100.64 174.65 100.64 171.962 100C171.322 99.744 170.682 99.744 170.042 99.744C168.378 99.488 168.122 99.232 168.25 97.568C168.378 96.416 168.634 95.264 168.89 94.112C170.682 82.848 172.602 71.584 174.778 60.448C175.674 54.944 176.57 49.44 177.594 43.936C178.49 38.56 179.514 33.056 180.41 27.68C180.922 24.864 181.434 22.176 181.946 19.36C182.074 18.464 182.33 17.568 182.842 16.672C182.97 16.416 183.226 16.16 183.226 16.032C183.098 14.24 184.378 14.368 185.402 14.112C185.658 14.112 186.042 14.112 186.298 14.112C186.554 14.112 186.938 14.112 187.066 14.24C187.578 14.496 187.962 14.496 188.474 14.496C188.986 14.496 189.626 14.496 190.138 14.368C190.522 14.368 190.906 14.24 191.29 14.24C196.666 13.728 201.914 13.6 207.29 13.6C207.802 13.6 208.314 13.6 208.826 13.6C209.082 13.728 209.338 13.984 209.466 14.112C209.594 14.368 209.722 14.752 209.722 15.008C209.978 19.36 210.362 23.84 210.618 28.192C211.386 36.384 212.026 44.704 212.41 52.896C212.922 58.912 213.434 64.928 213.69 70.944C214.202 75.936 214.586 81.184 214.842 86.176ZM187.706 73.76C187.834 73.76 187.834 73.76 187.578 73.76C191.674 73.632 195.77 73.248 199.866 72.864C200.25 72.864 200.506 72.608 200.506 72.096C199.738 63.904 198.97 55.712 198.714 47.52C198.458 44.192 198.202 40.736 197.946 37.408C197.69 34.208 197.562 31.008 197.306 27.808C197.178 26.784 197.05 25.888 196.922 24.864C196.922 24.736 196.794 24.48 196.666 24.352C196.41 24.224 196.154 24.224 195.898 24.224C195.13 24.224 194.49 24.736 194.362 25.504C192.442 37.152 190.266 48.672 188.218 60.32C187.578 64.16 186.938 68.128 186.298 71.968C186.042 73.504 186.042 73.76 186.938 73.76C187.066 73.76 187.322 73.76 187.706 73.76ZM297.242 54.176C297.37 61.728 297.626 69.408 297.754 76.96C298.01 83.744 298.138 90.4 298.138 97.184C298.138 97.568 298.138 98.08 298.01 98.464C298.01 98.72 297.626 98.848 297.498 99.104C297.37 99.104 297.37 99.104 297.242 99.104C295.194 99.104 293.274 99.488 291.226 99.488C290.842 99.488 290.33 99.488 289.946 99.488C288.794 99.488 287.514 99.616 286.234 99.616C285.722 99.616 285.338 99.36 285.21 98.72C285.082 98.336 284.954 97.824 284.954 97.44C284.954 96.672 284.954 95.776 284.954 95.008C284.698 87.968 284.57 78.752 284.442 71.712C284.314 68 284.186 64.288 284.058 60.704C284.058 60.576 284.058 60.576 284.058 60.448C283.802 53.024 283.674 45.6 283.546 38.176C283.418 36.256 283.29 34.464 283.162 32.672C283.162 32.544 283.034 32.416 282.906 32.416C282.778 32.416 282.65 32.544 282.65 32.544C282.266 33.312 281.754 33.952 281.37 34.72C272.282 51.488 266.138 78.88 265.498 97.312C265.498 97.824 265.242 98.208 264.986 98.72C264.858 99.232 264.346 99.488 263.834 99.488C262.682 99.488 261.53 99.616 260.378 99.616C259.354 99.616 258.458 99.488 257.434 99.232C257.306 99.232 257.178 99.232 257.05 99.232C256.794 99.232 256.538 99.232 256.41 99.232C255.514 99.232 254.746 99.232 253.978 99.232C252.954 99.104 252.826 98.848 252.698 97.824C252.698 93.6 252.442 89.504 251.93 85.408C251.802 83.872 251.546 82.208 251.418 80.672C250.906 75.808 250.394 70.944 249.882 66.208C249.498 62.112 249.114 58.016 248.602 53.92C248.09 49.312 247.578 44.704 247.066 40.096C246.682 36.768 245.914 31.648 245.658 28.32C245.53 27.808 245.53 27.424 245.402 26.912C245.402 26.784 245.146 26.656 245.018 26.4C244.89 26.528 244.762 26.656 244.762 26.656C244.378 27.168 244.122 27.68 243.866 28.192C242.202 31.264 241.434 36.128 240.41 39.456C237.21 50.848 235.802 62.752 235.418 74.528C235.418 81.824 235.418 89.248 235.418 96.544C235.418 97.184 235.418 97.696 235.418 98.336C235.418 99.104 235.162 99.36 234.266 99.488C231.322 99.616 228.506 99.744 225.562 99.744C224.922 99.744 224.154 100 223.514 100C223.13 100.128 222.618 99.744 222.49 99.36C222.362 98.976 222.362 98.464 222.234 98.08C222.234 97.312 222.234 96.416 222.234 95.648C222.106 91.808 221.85 87.84 221.85 84C221.85 66.592 224.41 36 231.962 21.92C233.882 18.336 236.186 15.392 239.002 12.576C240.282 11.552 241.818 11.424 243.354 11.424C246.938 11.296 250.394 11.04 253.978 10.912C254.362 10.784 254.746 10.784 255.002 10.784C256.538 10.912 257.05 11.296 257.178 12.704C257.946 17.952 258.586 23.328 258.97 28.576C259.61 33.824 260.506 40.864 261.146 46.112C261.146 46.368 261.146 46.496 261.274 46.752C261.274 46.88 261.402 46.88 261.53 46.88C261.658 47.008 261.658 46.88 261.786 46.88C262.042 46.24 262.17 45.6 262.426 44.96C266.138 34.336 274.33 14.496 286.362 11.552C286.746 11.424 287.002 11.296 287.258 11.424C287.514 11.424 287.642 11.424 287.898 11.424C289.946 11.424 291.994 10.912 293.914 10.912C294.042 10.784 294.298 10.784 294.554 10.784C295.194 10.912 295.962 11.552 295.962 12.32C296.09 15.392 296.346 18.592 296.346 21.792C296.602 26.4 296.602 31.136 296.73 35.872C296.858 39.584 296.858 43.296 296.986 46.88C297.114 49.312 297.242 51.744 297.242 54.176Z" fill="#1F2539"/>
<path d="M42.0613 143.8H41.9113C41.9113 133.75 42.0613 123.7 42.3613 113.65C42.3613 112.6 42.6613 112.45 43.5613 112.45C47.3113 112.45 51.0613 112.3 54.8113 112.3C56.3113 112.3 57.3613 113.35 57.3613 114.85C57.5113 115.9 57.5113 116.95 57.5113 118C57.3613 119.65 57.3613 126.25 57.8113 128.05C57.8113 135.85 57.6613 143.5 57.5113 151.3C57.5113 163.45 57.0613 175.6 56.3113 187.75C56.3113 192.85 52.5613 201.7 49.7113 205.75C44.7613 213.85 33.9613 216.55 25.1113 217.15C24.5113 217.15 24.0613 217.15 23.6113 217.15C22.2613 217.15 21.0613 217.15 19.8613 217C18.3613 217 16.8613 216.85 15.2113 216.7C13.5613 216.55 11.7613 216.25 9.96133 216.25C9.66133 216.25 9.36133 216.25 9.06133 216.25C8.46133 216.4 8.01133 215.95 8.01133 215.35C7.86133 214.45 7.86133 213.4 7.86133 212.5C8.01133 210.1 8.01133 207.7 8.16133 205.3C8.46133 199 8.61133 192.7 8.76133 186.4C8.91133 184 9.06133 181.45 9.21133 178.9C9.36133 178.45 9.36133 178 9.51133 177.4C9.96133 176.35 10.1113 176.2 11.4613 176.05C11.7613 176.05 12.2113 176.05 12.6613 176.05C13.5613 175.9 14.6113 175.75 15.5113 175.75C16.1113 175.9 16.8613 175.9 17.6113 175.9C18.2113 175.9 18.9613 175.9 19.7113 175.9C20.6113 175.9 21.5113 175.9 22.4113 176.05C22.7113 176.2 23.0113 176.05 23.1613 176.05C24.5113 176.05 24.6613 176.2 24.6613 177.4C24.6613 180.7 24.6613 184 24.5113 187.3C24.3613 191.65 24.2113 196 24.0613 200.5C24.0613 200.95 24.3613 201.25 24.8113 201.25C27.5113 201.1 30.2113 200.8 32.6113 199.75C38.7613 197.65 41.0113 188.35 41.0113 182.65C40.8613 179.95 41.1613 177.1 41.3113 174.4C41.3113 172.6 41.3113 170.8 41.4613 169C41.6113 166.15 41.7613 163.3 41.7613 160.45C41.9113 154.9 41.9113 149.35 42.0613 143.8ZM119.854 200.8C120.154 204.25 120.304 207.85 120.604 211.3C120.604 211.6 120.604 211.9 120.604 212.05C120.604 214.9 120.754 214.9 117.754 215.2C114.754 215.5 111.904 215.8 108.904 215.8C108.154 215.95 107.404 216.1 106.654 216.25C106.054 216.25 105.604 215.95 105.454 215.35C105.304 214.9 105.154 214.3 105.154 213.7C104.854 210.55 104.704 207.4 104.404 204.4C104.404 203.35 104.254 202.45 104.104 201.55C103.954 200.95 103.654 200.65 103.054 200.8C99.9039 201.4 96.6039 201.1 93.4539 201.55C91.0539 202 88.5039 202 86.1039 202.3C85.5039 202.3 85.0539 202.3 84.4539 202.3C83.4039 202.45 83.1039 202.6 82.9539 203.65C82.6539 205 82.5039 206.2 82.3539 207.55C81.7539 210.25 81.3039 212.95 80.8539 215.65C80.7039 216.25 80.4039 217 80.2539 217.6C80.1039 218.2 79.6539 218.35 79.0539 218.35C75.9039 217.75 72.7539 217.75 69.6039 217C68.8539 216.7 68.1039 216.7 67.3539 216.7C65.4039 216.4 65.1039 216.1 65.2539 214.15C65.4039 212.8 65.7039 211.45 66.0039 210.1C68.1039 196.9 70.3539 183.7 72.9039 170.65C73.9539 164.2 75.0039 157.75 76.2039 151.3C77.2539 145 78.4539 138.55 79.5039 132.25C80.1039 128.95 80.7039 125.8 81.3039 122.5C81.4539 121.45 81.7539 120.4 82.3539 119.35C82.5039 119.05 82.8039 118.75 82.8039 118.6C82.6539 116.5 84.1539 116.65 85.3539 116.35C85.6539 116.35 86.1039 116.35 86.4039 116.35C86.7039 116.35 87.1539 116.35 87.3039 116.5C87.9039 116.8 88.3539 116.8 88.9539 116.8C89.5539 116.8 90.3039 116.8 90.9039 116.65C91.3539 116.65 91.8039 116.5 92.2539 116.5C98.5539 115.9 104.704 115.75 111.004 115.75C111.604 115.75 112.204 115.75 112.804 115.75C113.104 115.9 113.404 116.2 113.554 116.35C113.704 116.65 113.854 117.1 113.854 117.4C114.154 122.5 114.604 127.75 114.904 132.85C115.804 142.45 116.554 152.2 117.004 161.8C117.604 168.85 118.204 175.9 118.504 182.95C119.104 188.8 119.554 194.95 119.854 200.8ZM88.0539 186.25C88.2039 186.25 88.2039 186.25 87.9039 186.25C92.7039 186.1 97.5039 185.65 102.304 185.2C102.754 185.2 103.054 184.9 103.054 184.3C102.154 174.7 101.254 165.1 100.954 155.5C100.654 151.6 100.354 147.55 100.054 143.65C99.7539 139.9 99.6039 136.15 99.3039 132.4C99.1539 131.2 99.0039 130.15 98.8539 128.95C98.8539 128.8 98.7039 128.5 98.5539 128.35C98.2539 128.2 97.9539 128.2 97.6539 128.2C96.7539 128.2 96.0039 128.8 95.8539 129.7C93.6039 143.35 91.0539 156.85 88.6539 170.5C87.9039 175 87.1539 179.65 86.4039 184.15C86.1039 185.95 86.1039 186.25 87.1539 186.25C87.3039 186.25 87.6039 186.25 88.0539 186.25ZM128.066 209.35C128.216 181.6 128.666 153.85 129.116 126.1C129.116 123.7 129.266 121.3 129.416 118.9C129.416 118.15 129.566 117.4 129.866 116.8C130.466 115.6 130.616 114.25 130.616 112.9C130.466 112 130.766 111.7 131.816 111.7C132.416 111.7 133.016 111.7 133.616 111.7C135.416 111.7 137.216 111.7 139.016 111.7C139.916 111.7 140.666 111.7 141.566 111.7C146.966 112.15 152.366 112 157.616 112.3C162.416 112.6 167.366 112.6 172.166 112.75C173.966 112.75 175.766 113.05 177.566 113.05C178.166 113.05 178.616 113.2 179.216 113.2C179.966 113.2 180.716 113.05 181.316 112.75C181.616 112.75 182.066 112.9 182.216 113.2C182.516 113.65 182.816 114.25 182.966 114.7C183.266 115.45 183.566 115.75 184.316 115.75C184.616 115.75 184.916 116.05 185.066 116.35C185.066 116.65 185.216 117.1 185.216 117.4C185.966 121.45 186.266 125.5 185.816 129.55C183.866 147.4 176.066 162.7 160.166 172.45C159.716 172.6 159.266 172.9 158.816 173.2C154.766 176.05 150.416 177.85 145.616 178.9C145.316 179.05 145.016 179.05 144.716 179.2C144.416 179.35 144.116 179.65 144.116 179.95C143.966 180.7 144.116 181.6 143.966 182.35C143.966 189.7 143.966 200.95 143.816 208.3C143.816 210.55 143.666 212.65 143.516 214.75C143.516 215.8 143.216 216.1 142.316 216.1C140.816 216.1 139.316 216.1 137.816 216.4C137.666 216.4 137.366 216.4 137.216 216.4C136.766 216.4 136.316 216.4 135.866 216.4C133.766 216.25 131.816 216.25 129.866 216.25C128.816 216.25 128.366 215.95 128.216 215.05C128.216 214.45 128.066 213.85 128.066 213.25C128.066 211.9 128.066 210.55 128.066 209.35ZM144.716 129.4C144.716 134.65 144.566 139.9 144.566 145.15C144.566 150.1 144.416 154.9 144.416 159.85C144.416 160.6 144.416 161.2 144.416 161.95C144.416 162.55 144.566 162.85 144.866 162.85C145.016 162.85 145.166 162.85 145.316 162.7C148.466 161.35 151.316 159.55 154.016 157.6C163.466 151.3 168.866 140.95 169.916 129.85C170.066 128.8 169.766 128.5 168.866 128.5C168.116 128.35 167.366 128.2 166.616 128.2C165.716 128.2 164.816 128.2 164.066 128.2C160.166 128.05 156.266 128.2 152.366 127.75C150.116 127.6 147.866 127.6 145.616 127.6C145.016 127.6 144.716 127.9 144.716 128.65C144.716 128.8 144.716 129.1 144.716 129.4ZM232.881 200.8C233.181 204.25 233.331 207.85 233.631 211.3C233.631 211.6 233.631 211.9 233.631 212.05C233.631 214.9 233.781 214.9 230.781 215.2C227.781 215.5 224.931 215.8 221.931 215.8C221.181 215.95 220.431 216.1 219.681 216.25C219.081 216.25 218.631 215.95 218.481 215.35C218.331 214.9 218.181 214.3 218.181 213.7C217.881 210.55 217.731 207.4 217.431 204.4C217.431 203.35 217.281 202.45 217.131 201.55C216.981 200.95 216.681 200.65 216.081 200.8C212.931 201.4 209.631 201.1 206.481 201.55C204.081 202 201.531 202 199.131 202.3C198.531 202.3 198.081 202.3 197.481 202.3C196.431 202.45 196.131 202.6 195.981 203.65C195.681 205 195.531 206.2 195.381 207.55C194.781 210.25 194.331 212.95 193.881 215.65C193.731 216.25 193.431 217 193.281 217.6C193.131 218.2 192.681 218.35 192.081 218.35C188.931 217.75 185.781 217.75 182.631 217C181.881 216.7 181.131 216.7 180.381 216.7C178.431 216.4 178.131 216.1 178.281 214.15C178.431 212.8 178.731 211.45 179.031 210.1C181.131 196.9 183.381 183.7 185.931 170.65C186.981 164.2 188.031 157.75 189.231 151.3C190.281 145 191.481 138.55 192.531 132.25C193.131 128.95 193.731 125.8 194.331 122.5C194.481 121.45 194.781 120.4 195.381 119.35C195.531 119.05 195.831 118.75 195.831 118.6C195.681 116.5 197.181 116.65 198.381 116.35C198.681 116.35 199.131 116.35 199.431 116.35C199.731 116.35 200.181 116.35 200.331 116.5C200.931 116.8 201.381 116.8 201.981 116.8C202.581 116.8 203.331 116.8 203.931 116.65C204.381 116.65 204.831 116.5 205.281 116.5C211.581 115.9 217.731 115.75 224.031 115.75C224.631 115.75 225.231 115.75 225.831 115.75C226.131 115.9 226.431 116.2 226.581 116.35C226.731 116.65 226.881 117.1 226.881 117.4C227.181 122.5 227.631 127.75 227.931 132.85C228.831 142.45 229.581 152.2 230.031 161.8C230.631 168.85 231.231 175.9 231.531 182.95C232.131 188.8 232.581 194.95 232.881 200.8ZM201.081 186.25C201.231 186.25 201.231 186.25 200.931 186.25C205.731 186.1 210.531 185.65 215.331 185.2C215.781 185.2 216.081 184.9 216.081 184.3C215.181 174.7 214.281 165.1 213.981 155.5C213.681 151.6 213.381 147.55 213.081 143.65C212.781 139.9 212.631 136.15 212.331 132.4C212.181 131.2 212.031 130.15 211.881 128.95C211.881 128.8 211.731 128.5 211.581 128.35C211.281 128.2 210.981 128.2 210.681 128.2C209.781 128.2 209.031 128.8 208.881 129.7C206.631 143.35 204.081 156.85 201.681 170.5C200.931 175 200.181 179.65 199.431 184.15C199.131 185.95 199.131 186.25 200.181 186.25C200.331 186.25 200.631 186.25 201.081 186.25ZM296.144 163C295.844 166.3 295.844 169.45 295.694 172.6C295.544 176.95 295.544 181.45 295.394 185.8C295.244 190.45 295.244 194.95 295.094 199.45C294.944 203.65 294.794 210.1 294.644 214.15C294.644 214.6 294.644 215.05 294.494 215.5C294.344 216.7 294.044 216.85 292.844 216.85C291.644 217 290.444 217 289.244 217.15C286.394 217.15 283.544 217 280.694 216.85C279.794 216.85 279.344 216.7 279.194 215.8C279.194 204.25 279.344 192.85 279.794 181.3C279.944 177.7 280.094 174.25 280.094 170.65C280.244 169.75 280.094 169 279.644 168.1C278.744 166 277.994 163.6 277.094 161.35C273.344 151 268.244 141.55 260.894 133.45C260.294 132.7 259.544 132.1 258.794 131.5C258.644 131.35 258.344 131.35 258.194 131.2C258.044 131.35 258.044 131.5 258.044 131.65C257.894 132.4 257.894 133.15 257.894 133.75C257.744 142.3 257.594 150.7 257.444 159.1C257.444 163.75 257.444 168.25 257.294 172.9C257.294 179.65 256.994 186.4 256.994 193.3C256.844 196.75 256.844 200.2 256.844 203.65C256.844 205.9 256.694 210.85 256.544 213.1C256.394 213.55 256.394 214.15 256.244 214.6C255.944 215.5 255.644 215.65 254.744 215.8C253.694 215.8 252.794 215.95 251.894 216.1C251.444 216.1 250.994 216.25 250.544 216.25C249.794 216.1 248.894 216.1 247.994 216.1C247.394 216.1 246.644 216.1 245.894 216.1C245.294 216.1 244.544 216.1 243.944 215.95C243.644 215.95 243.344 215.95 242.894 215.95C242.594 215.95 242.444 215.95 242.294 215.95C241.244 215.95 241.394 215.8 241.244 214.3C240.944 209.8 241.094 202.9 241.244 198.4C241.394 190.75 241.394 183.25 241.544 175.6C241.694 164.8 241.844 154 242.144 143.2C242.144 134.35 242.144 125.5 242.894 116.65C243.044 116.2 243.344 115.9 243.794 115.9C244.544 115.9 245.144 115.9 245.894 115.9C246.344 115.75 246.344 115.6 246.344 115.15C246.344 113.95 246.344 113.95 247.244 113.65C249.344 112.9 251.594 112.45 253.844 112.45C256.094 112.45 257.894 112.9 259.994 113.65C267.944 117.1 274.394 124.15 279.344 131.2C279.794 131.95 280.244 132.55 280.694 133.15H280.994C281.294 132.85 281.294 128.35 281.294 127.75C281.444 123.7 281.594 119.8 281.744 115.75C281.744 115.3 281.744 115 281.894 114.55C282.044 113.35 282.494 112.9 283.844 112.9C284.594 112.9 285.344 112.75 286.094 112.75C286.844 112.6 287.594 112.45 288.194 112.45C288.794 112.45 289.394 112.6 289.994 112.75C290.294 112.9 290.594 112.9 290.894 112.75C291.344 112.6 291.794 112.6 292.244 112.6C293.144 112.6 294.194 112.75 295.244 112.75C295.544 112.75 295.844 112.75 296.144 112.75C296.744 112.75 297.194 113.05 297.194 113.95C297.194 119.5 297.194 125.05 296.744 130.45C296.444 141.25 296.144 152.2 296.144 163Z" fill="#1F2539"/>
</svg>
