<svg width="1920" height="941" viewBox="0 0 1920 941" fill="none" xmlns="http://www.w3.org/2000/svg">
<g filter="url(#filter0_i_99_17)">
<path d="M1919.5 941.5H0C0 941.5 227.5 797 510 481.5C589.092 393.169 649.294 320.2 695.828 260.5C695.828 260.5 841.5 48 872.5 27.5C903.5 6.9999 926.612 4.4761 969.5 2.49994C1015 -4.49999 1062.65 4.45627 1102.5 27.5C1126.69 41.1441 1156.26 109.213 1238.57 223C1288.97 292.686 1359.16 379.519 1460 481.5C1725.5 750 1919.5 941.5 1919.5 941.5Z" fill="#84B9CB"/>
<path d="M872.672 27.3233C903.672 6.8232 926.784 4.29941 969.672 2.32325C1015.17 -4.67668 1062.82 4.27958 1102.67 27.3233C1126.86 40.9674 1156.43 109.036 1238.74 222.823C1238.74 222.823 1163.67 155.323 1146.67 164.823C1129.67 174.323 1129.67 271.323 1129.67 271.323C1129.67 271.323 1078.17 164.823 1052.67 174.323C1027.17 183.823 997.672 296.823 997.672 296.823C997.672 296.823 957.172 174.323 918.172 174.323C879.172 174.323 802.672 304.823 802.672 304.823C802.672 304.823 834.672 183.823 818.672 174.323C802.672 164.823 696 260.323 696 260.323C696 260.323 841.672 47.8233 872.672 27.3233Z" fill="white"/>
</g>
<defs>
<filter id="filter0_i_99_17" x="0" y="0" width="1919.5" height="943.5" filterUnits="userSpaceOnUse" color-interpolation-filters="sRGB">
<feFlood flood-opacity="0" result="BackgroundImageFix"/>
<feBlend mode="normal" in="SourceGraphic" in2="BackgroundImageFix" result="shape"/>
<feColorMatrix in="SourceAlpha" type="matrix" values="0 0 0 0 0 0 0 0 0 0 0 0 0 0 0 0 0 0 127 0" result="hardAlpha"/>
<feOffset dy="2"/>
<feGaussianBlur stdDeviation="20"/>
<feComposite in2="hardAlpha" operator="arithmetic" k2="-1" k3="1"/>
<feColorMatrix type="matrix" values="0 0 0 0 0.121569 0 0 0 0 0.145098 0 0 0 0 0.223529 0 0 0 0.15 0"/>
<feBlend mode="normal" in2="shape" result="effect1_innerShadow_99_17"/>
</filter>
</defs>
</svg>
