<?xml version="1.0" encoding="UTF-8" standalone="no"?>
<!-- Created with Inkscape (http://www.inkscape.org/) -->

<svg
   version="1.1"
   id="svg606"
   width="91.348282"
   height="103.33334"
   viewBox="0 0 91.348282 103.33334"
   xmlns="http://www.w3.org/2000/svg"
   xmlns:svg="http://www.w3.org/2000/svg">
  <defs
     id="defs610" />
  <g
     id="g612"
     transform="translate(-15.985049,-14.293786)">
    <path
       style="fill:#000000;stroke-width:1.33333"
       d="M 72,104.56438 V 91.501647 L 66.912993,86.534318 61.825987,81.566988 47.592601,92.2831 c -12.597504,9.48448 -14.534869,10.52783 -16.856526,9.07793 -2.217526,-1.384863 -3.110284,-1.18053 -5.773502,1.32143 l -3.150357,2.95961 -2.913583,-3.10137 -2.913584,-3.101365 3.338816,-3.136655 c 3.115826,-2.927165 3.193084,-3.297688 1.156794,-5.547765 C 18.955285,89.069398 18.702495,87.834718 19.640645,86.65213 20.378752,85.721707 27.865673,75.960452 36.278249,64.960452 49.694441,47.417892 51.683672,44.146744 52.467701,38.338052 53.5753,30.13211 58.304548,22.786952 65.580679,17.971836 70.248048,14.883118 72.558448,14.293786 80,14.293786 c 7.441552,0 9.751952,0.589332 14.419321,3.67805 3.056851,2.022928 7.213029,6.179111 9.235959,9.235962 3.08872,4.667369 3.67805,6.977769 3.67805,14.419321 0,7.441552 -0.58933,9.751952 -3.67805,14.419321 -4.861439,7.346134 -12.352445,12.139727 -20.474043,13.10161 -3.973657,0.470621 -8.134784,2.023758 -10.522165,3.92739 l -3.949108,3.148908 5.645019,5.751854 L 80,87.728056 v 14.949534 14.94953 H 76 72 Z M 49.582569,80.857958 C 57.878823,74.568254 65.168772,68.936148 65.782456,68.342168 66.39614,67.74819 64.07396,64.437922 60.622055,60.986016 55.47992,55.843882 54.053349,55.033622 52.726999,56.501806 48.573664,61.09928 29.333333,86.985607 29.333333,87.976112 c 0,1.379666 2.846075,4.317674 4.18257,4.317674 0.540413,0 7.770413,-5.146123 16.066666,-11.435828 z M 89.39036,59.436759 C 90.145991,58.681128 85.232891,52.830856 76.706616,44.333599 L 62.789481,30.463828 61.278672,34.378807 c -3.471576,8.99594 1.040308,20.699465 9.678905,25.106428 4.593972,2.343607 16.070883,2.313424 18.432783,-0.04848 z M 99.636175,43.93183 C 101.29848,29.183882 86.491513,17.603527 72.751688,22.905791 L 68.836709,24.4166 82.70648,38.333735 c 8.184087,8.212035 14.360019,13.426885 15.065692,12.721212 0.657756,-0.657756 1.496557,-3.86316 1.864003,-7.123117 z"
       id="path733" />
  </g>
</svg>
