<?xml version="1.0" encoding="UTF-8" standalone="no"?>
<!-- Created with Inkscape (http://www.inkscape.org/) -->

<svg
   version="1.1"
   id="svg410"
   width="132.3349"
   height="127.99999"
   viewBox="0 0 132.3349 127.99999"
   xmlns="http://www.w3.org/2000/svg"
   xmlns:svg="http://www.w3.org/2000/svg">
  <defs
     id="defs414" />
  <g
     id="g416"
     transform="translate(0.08610384,-2.1016954)">
    <path
       style="fill:#000000;stroke-width:1.33333"
       d="M 32.734755,109.10169 C 0.82959492,76.68561 -1.2969921,74.30038 0.29108792,72.7123 1.2769349,71.72645 7.3736749,72.35056 20.691605,74.80067 31.138565,76.7226 39.99126,77.9899 40.364268,77.6169 40.737275,77.24389 37.98079,71.27611 34.238745,64.35517 c -7.02278,-12.98868 -8.16634,-16.92014 -4.92163,-16.92014 1.03514,0 12.135139,4.4597 24.666661,9.91044 12.531521,5.45075 22.784583,9.46905 22.784583,8.92957 0,-0.53949 -3.046778,-8.05025 -6.770619,-16.69059 C 63.356597,34.17516 63.273729,33.81956 65.664406,30.98933 73.862183,21.28429 91.905023,2.1016954 92.835647,2.1016954 c 2.084919,0 34.714123,30.9890746 34.215613,32.4957446 -0.31415,0.94948 -6.24037,1.75012 -16.06874,2.17092 l -15.571026,0.66667 18.124626,29.18505 c 9.96854,16.05177 18.38338,29.85937 18.69965,30.68354 0.31626,0.82417 -5.16728,8.5409 -12.18564,17.14828 l -12.76066,15.64979 H 80.346618 53.403769 Z m 67.880065,12 c -0.741492,-2.01666 -3.86028,-9.31058 -6.930645,-16.2087 L 88.101692,92.35095 52.76836,85.94388 C 33.335025,82.41999 15.746695,79.22124 13.683175,78.83554 c -3.08551,-0.57671 0.2255,3.43997 18.64252,22.61578 l 22.394385,23.31704 h 23.621447 23.621453 z m 17.40968,-12.33333 c 4.48641,-5.5 7.92756,-10.9 7.64701,-12 -0.28055,-1.1 -8.74531,-15.05 -18.81058,-31 l -18.3005,-29 h -9.308059 c -5.11943,0 -9.067427,0.45 -8.773326,1 0.294103,0.55 8.545608,19.76248 18.336679,42.69439 14.131646,33.09808 18.136956,41.34505 19.426816,40 0.89368,-0.93191 5.29556,-6.19439 9.78196,-11.69439 z M 84.768359,84.81359 c 0,-0.70845 -0.997968,-3.38085 -2.217705,-5.93867 C 80.522151,74.62111 78.458717,73.41975 58.364583,64.79353 46.281981,59.60659 36.229615,55.52933 36.02599,55.73295 c -0.203627,0.20363 2.430106,5.75791 5.852737,12.34285 l 6.222966,11.97261 16,2.87845 c 18.990361,3.41642 20.666666,3.56946 20.666666,1.88673 z M 105.43716,20.107945 93.439282,8.9040804 89.645231,12.502887 c -2.086728,1.979345 -6.797053,7.048807 -10.467388,11.265474 l -6.673335,7.666669 22.465259,-0.0616 22.465263,-0.0616 z"
       id="path537" />
  </g>
</svg>
