<?xml version="1.0" encoding="UTF-8" standalone="no"?>
<!-- Created with Inkscape (http://www.inkscape.org/) -->

<svg
   version="1.1"
   id="svg979"
   width="84.690132"
   height="85.465729"
   viewBox="0 0 84.690132 85.465729"
   xmlns="http://www.w3.org/2000/svg"
   xmlns:svg="http://www.w3.org/2000/svg">
  <defs
     id="defs983" />
  <g
     id="g985"
     transform="translate(118.70198,-21.344854)">
    <path
       style="fill:#000000;stroke-width:1.33333"
       d="m -106.72095,104.42433 c -5.93324,-2.92379 -10.99146,-9.835024 -11.84264,-16.18105 -0.53183,-3.965085 0.40299,-7.885772 3.96116,-16.613282 6.73849,-16.528219 19.131472,-39.030605 24.394092,-44.293226 8.254167,-8.254167 20.06614,-7.951728 28.49098,0.729495 5.242252,5.401783 23.706123,40.843111 26.815261,51.471787 3.044909,10.409113 -1.939098,21.264996 -11.619943,25.309916 -6.801825,2.84198 -54.24958,2.50808 -60.19891,-0.42364 z m 12.052789,-18.090994 0.374372,-16.333334 h 18.000001 18.000001 l 0.374372,16.333334 0.374372,16.333334 h 3.358508 c 8.449873,0 16.564162,-8.50712 16.532938,-17.333334 -0.01696,-4.792255 -16.240242,-39.980795 -23.059295,-50.015931 -9.693856,-14.265792 -22.902635,-13.330262 -32.409975,2.295482 -8.234193,13.533264 -21.837593,43.199137 -21.837593,47.622742 0,8.814819 8.04038,17.414711 16.292299,17.426061 l 3.625628,0.005 z m 33.04104,1.666667 V 73.333336 h -14.666667 -14.666667 v 14.666667 14.666667 h 14.666667 14.666667 z"
       id="path1106" />
  </g>
</svg>
