<?xml version="1.0" encoding="UTF-8" standalone="no"?>
<!-- Created with Inkscape (http://www.inkscape.org/) -->

<svg
   width="135.29723mm"
   height="131.60892mm"
   viewBox="0 0 135.29723 131.60892"
   version="1.1"
   id="svg5"
   xml:space="preserve"
   xmlns="http://www.w3.org/2000/svg"
   xmlns:svg="http://www.w3.org/2000/svg"><defs
     id="defs2" /><g
     id="layer1"
     transform="translate(-23.451518,-35.707533)"><path
       id="path12926"
       style="fill:#C9171E;stroke-width:0.264583"
       d="m 91.26368,35.707898 c -3.890425,-0.01353 -6.304814,0.346172 -9.694499,1.444873 -10.679162,3.461445 -18.880151,13.061813 -20.618896,24.137545 -0.299455,1.907497 -0.369253,2.059382 -0.881083,1.922363 -0.305636,-0.08182 -1.80568,-0.285618 -3.333647,-0.452686 -8.187849,-0.895267 -17.117219,2.115562 -23.609928,7.960755 -2.136224,1.92318 -5.173992,6.063324 -6.61355,9.013403 -5.712492,11.706586 -3.277871,25.819999 6.046659,35.054189 2.08773,2.06751 5.625433,4.57967 7.977291,5.66426 0.767301,0.35385 1.356551,0.71105 1.309481,0.79375 -0.917712,1.61267 -2.42209,5.16647 -2.932638,6.92826 -3.578277,12.34788 0.798011,25.43677 11.069609,33.10805 3.695939,2.7603 8.512444,4.82661 13.103076,5.62136 9.183022,1.58983 19.132865,-1.48569 25.995313,-8.03465 l 2.05052,-1.95647 2.050521,1.95647 c 10.585171,10.10164 26.689171,11.22369 38.648801,2.69234 6.56662,-4.68426 10.93026,-11.69674 12.3517,-19.84788 1.0447,-5.99075 -0.13431,-13.58898 -2.92437,-18.84329 -0.49764,-0.93718 -0.87715,-1.72759 -0.84335,-1.75649 0.0338,-0.0289 0.89892,-0.47162 1.92236,-0.98391 5.39711,-2.70165 10.49363,-7.95024 13.41417,-13.81467 5.68078,-11.406952 3.10901,-25.946223 -6.20531,-35.081058 -6.86727,-6.734949 -17.18322,-9.907788 -26.51518,-8.154541 -1.54392,0.290067 -1.61194,0.222884 -1.87068,-1.84795 -0.27232,-2.179618 -1.3497,-5.681856 -2.50941,-8.156608 -3.55925,-7.59523 -10.70338,-13.78115 -18.65571,-16.153536 -3.072637,-0.916647 -5.121814,-1.201329 -8.73125,-1.213879 z" /></g></svg>
